<svg width="49" height="48" viewBox="0 0 49 48" fill="none" xmlns="http://www.w3.org/2000/svg">
<rect x="0.473022" width="48.527" height="48" rx="8" fill="#FFFAF1"/>
<path d="M34.5159 30.5534C33.866 29.9802 33.297 29.3232 32.8242 28.6C32.3081 27.6017 31.9987 26.5115 31.9143 25.3934V22.1C31.9188 20.3438 31.2747 18.6463 30.1031 17.3267C28.9316 16.007 27.3131 15.1559 25.5519 14.9333V14.0733C25.5519 13.8373 25.4571 13.6109 25.2884 13.444C25.1196 13.2771 24.8908 13.1833 24.6521 13.1833C24.4135 13.1833 24.1846 13.2771 24.0159 13.444C23.8471 13.6109 23.7523 13.8373 23.7523 14.0733V14.9467C22.0069 15.1853 20.408 16.0415 19.2518 17.3568C18.0956 18.672 17.4605 20.3571 17.4641 22.1V25.3934C17.3796 26.5115 17.0703 27.6017 16.5542 28.6C16.0897 29.3216 15.5299 29.9785 14.8894 30.5534C14.8175 30.6158 14.7599 30.6927 14.7204 30.7789C14.6809 30.8651 14.6604 30.9587 14.6603 31.0534V31.96C14.6603 32.1368 14.7313 32.3064 14.8577 32.4314C14.9841 32.5564 15.1555 32.6267 15.3343 32.6267H34.0711C34.2498 32.6267 34.4213 32.5564 34.5477 32.4314C34.6741 32.3064 34.7451 32.1368 34.7451 31.96V31.0534C34.7449 30.9587 34.7244 30.8651 34.6849 30.7789C34.6454 30.6927 34.5878 30.6158 34.5159 30.5534ZM16.0622 31.2934C16.6893 30.6942 17.2414 30.0227 17.7067 29.2934C18.3568 28.0877 18.7362 26.7574 18.8188 25.3934V22.1C18.792 21.3187 18.9245 20.5401 19.2084 19.8105C19.4922 19.0809 19.9216 18.4152 20.4709 17.8532C21.0202 17.2911 21.6783 16.8441 22.4058 16.5389C23.1334 16.2336 23.9157 16.0763 24.706 16.0763C25.4964 16.0763 26.2786 16.2336 27.0062 16.5389C27.7338 16.8441 28.3919 17.2911 28.9412 17.8532C29.4905 18.4152 29.9199 19.0809 30.2037 19.8105C30.4875 20.5401 30.62 21.3187 30.5933 22.1V25.3934C30.6759 26.7574 31.0552 28.0877 31.7054 29.2934C32.1707 30.0227 32.7228 30.6942 33.3499 31.2934H16.0622Z" fill="#FFA412"/>
<path d="M24.7361 34.8533C25.1606 34.8436 25.5681 34.6857 25.8863 34.4075C26.2045 34.1294 26.413 33.7488 26.4749 33.3333H22.9298C22.9935 33.7601 23.2117 34.1496 23.544 34.4292C23.8762 34.7088 24.2999 34.8595 24.7361 34.8533Z" fill="#FFA412"/>
<path d="M39.2272 12.6667C41.0884 12.6667 42.5972 11.1743 42.5972 9.33333C42.5972 7.49238 41.0884 6 39.2272 6C37.3661 6 35.8573 7.49238 35.8573 9.33333C35.8573 11.1743 37.3661 12.6667 39.2272 12.6667Z" fill="#EB5757"/>
</svg>
