<svg width="20" height="19" viewBox="0 0 20 19" fill="none" xmlns="http://www.w3.org/2000/svg">
<path d="M5.375 18.525C4.775 18.5083 4.20417 18.3542 3.6625 18.0625C3.12083 17.7708 2.60833 17.3417 2.125 16.775C1.45833 15.975 0.9375 15.0208 0.5625 13.9125C0.1875 12.8042 0 11.6667 0 10.5C0 9.11667 0.2625 7.81667 0.7875 6.6C1.3125 5.38333 2.025 4.325 2.925 3.425C3.825 2.525 4.88333 1.8125 6.1 1.2875C7.31667 0.7625 8.61667 0.5 10 0.5C11.3833 0.5 12.6833 0.766667 13.9 1.3C15.1167 1.83333 16.175 2.55833 17.075 3.475C17.975 4.39167 18.6875 5.46667 19.2125 6.7C19.7375 7.93333 20 9.25833 20 10.675C20 11.9583 19.7917 13.1583 19.375 14.275C18.9583 15.3917 18.3667 16.3333 17.6 17.1C17.1333 17.5667 16.6417 17.9208 16.125 18.1625C15.6083 18.4042 15.0833 18.525 14.55 18.525C14.25 18.525 13.95 18.4875 13.65 18.4125C13.35 18.3375 13.05 18.225 12.75 18.075L11.35 17.375C11.15 17.275 10.9375 17.2 10.7125 17.15C10.4875 17.1 10.25 17.075 10 17.075C9.75 17.075 9.5125 17.1 9.2875 17.15C9.0625 17.2 8.85 17.275 8.65 17.375L7.25 18.075C6.93333 18.2417 6.62083 18.3625 6.3125 18.4375C6.00417 18.5125 5.69167 18.5417 5.375 18.525ZM5.425 16.525C5.575 16.525 5.72917 16.5083 5.8875 16.475C6.04583 16.4417 6.2 16.3833 6.35 16.3L7.75 15.6C8.1 15.4167 8.4625 15.2833 8.8375 15.2C9.2125 15.1167 9.59167 15.075 9.975 15.075C10.3583 15.075 10.7417 15.1167 11.125 15.2C11.5083 15.2833 11.875 15.4167 12.225 15.6L13.65 16.3C13.8 16.3833 13.95 16.4417 14.1 16.475C14.25 16.5083 14.4 16.525 14.55 16.525C14.8667 16.525 15.1667 16.4417 15.45 16.275C15.7333 16.1083 16.0167 15.8583 16.3 15.525C16.8333 14.8917 17.25 14.1333 17.55 13.25C17.85 12.3667 18 11.4583 18 10.525C18 8.29167 17.225 6.39583 15.675 4.8375C14.125 3.27917 12.2333 2.5 10 2.5C7.76667 2.5 5.875 3.28333 4.325 4.85C2.775 6.41667 2 8.31667 2 10.55C2 11.5 2.15417 12.425 2.4625 13.325C2.77083 14.225 3.2 14.9833 3.75 15.6C4.03333 15.9333 4.30833 16.1708 4.575 16.3125C4.84167 16.4542 5.125 16.525 5.425 16.525ZM10 12.5C10.55 12.5 11.0208 12.3042 11.4125 11.9125C11.8042 11.5208 12 11.05 12 10.5C12 10.3667 11.9875 10.2333 11.9625 10.1C11.9375 9.96667 11.9 9.83333 11.85 9.7L13.1 8.025C13.2667 8.24167 13.4125 8.47083 13.5375 8.7125C13.6625 8.95417 13.7667 9.21667 13.85 9.5H15.9C15.65 8.03333 14.9708 6.83333 13.8625 5.9C12.7542 4.96667 11.4667 4.5 10 4.5C8.53333 4.5 7.24167 4.97083 6.125 5.9125C5.00833 6.85417 4.33333 8.05 4.1 9.5H6.15C6.38333 8.6 6.85833 7.875 7.575 7.325C8.29167 6.775 9.1 6.5 10 6.5C10.2833 6.5 10.55 6.525 10.8 6.575C11.05 6.625 11.2917 6.7 11.525 6.8L10.25 8.525C10.2167 8.525 10.175 8.52083 10.125 8.5125C10.075 8.50417 10.0333 8.5 10 8.5C9.45 8.5 8.97917 8.69583 8.5875 9.0875C8.19583 9.47917 8 9.95 8 10.5C8 11.05 8.19583 11.5208 8.5875 11.9125C8.97917 12.3042 9.45 12.5 10 12.5Z" fill="#1C1B1F"/>
</svg>
