<svg width="18" height="16" viewBox="0 0 18 16" fill="none" xmlns="http://www.w3.org/2000/svg">
<path d="M9.45242 4.06939L9.42827 4.06219C9.30619 4.02578 9.2366 3.89741 9.27302 3.77524L9.45242 4.06939ZM9.45242 4.06939L9.45347 4.06819M9.45242 4.06939L9.45347 4.06819M9.45347 4.06819C9.568 4.08893 9.68161 4.02036 9.71526 3.90676C10.0219 2.87655 10.9878 2.15685 12.064 2.15685C12.1914 2.15685 12.2947 2.05352 12.2947 1.92611C12.2947 1.7987 12.1914 1.69537 12.064 1.69537C10.7414 1.69537 9.62991 2.57597 9.27303 3.77522L9.45347 4.06819Z" fill="#088586" stroke="#F9FFF9" stroke-width="0.0785079"/>
<path d="M14.7448 11.3091H13.5958C13.4901 11.3091 13.4044 11.2233 13.4044 11.1176C13.4044 11.0119 13.4901 10.9261 13.5958 10.9261H14.7448C16.3285 10.9261 17.6171 9.63751 17.6171 8.05377C17.6171 6.47004 16.3285 5.18144 14.7448 5.18144H14.7171C14.6616 5.18144 14.6088 5.15737 14.5724 5.11538C14.536 5.07339 14.5196 5.01772 14.5276 4.96273C14.5447 4.84347 14.5533 4.72365 14.5533 4.60698C14.5533 3.23442 13.4365 2.11761 12.0639 2.11761C11.5299 2.11761 11.0207 2.28448 10.5912 2.6003C10.4968 2.66964 10.3628 2.63887 10.3082 2.53505C9.09186 0.21887 5.91486 -0.0921699 4.26775 1.92271C3.57388 2.77155 3.30126 3.87575 3.51972 4.95194C3.54379 5.0708 3.45283 5.18159 3.33206 5.18159H3.25532C1.67159 5.18159 0.382996 6.47018 0.382996 8.05392C0.382996 9.63765 1.67159 10.9262 3.25532 10.9262H4.40424C4.50997 10.9262 4.59573 11.012 4.59573 11.1177C4.59573 11.2235 4.50997 11.3092 4.40424 11.3092H3.25532C1.46038 11.3092 0 9.84885 0 8.05391C0 6.30931 1.37953 4.8808 3.105 4.80201C2.94292 3.68548 3.25286 2.55926 3.97121 1.68034C5.73468 -0.477049 9.11424 -0.235235 10.5429 2.17041C10.9986 1.88468 11.5201 1.73479 12.0638 1.73479C13.7268 1.73479 15.0445 3.15017 14.9292 4.8038C16.6388 4.89968 18 6.32065 18 8.05376C18 9.84885 16.5396 11.3091 14.7447 11.3091L14.7448 11.3091Z" fill="#088586"/>
<path d="M4.14788 11.0094C4.14788 13.6708 6.31304 15.836 8.97441 15.836C11.6358 15.836 13.8009 13.6708 13.8009 11.0094C13.8009 8.34804 11.6358 6.18291 8.97441 6.18291C6.313 6.18291 4.14788 8.34807 4.14788 11.0094ZM4.60945 11.0094C4.60945 8.60268 6.56761 6.64449 8.97441 6.64449C11.3812 6.64449 13.3394 8.60264 13.3394 11.0094C13.3394 13.4162 11.3812 15.3744 8.97441 15.3744C6.56765 15.3744 4.60945 13.4162 4.60945 11.0094Z" fill="#088586" stroke="#F9FFF9" stroke-width="0.0785079"/>
<path d="M8.88262 12.9366C8.88262 13.0357 8.96298 13.116 9.06207 13.116C9.16113 13.116 9.24151 13.0358 9.24151 12.9366V9.29156C9.24151 9.19247 9.16115 9.11211 9.06207 9.11211C8.96298 9.11211 8.88262 9.19248 8.88262 9.29156V12.9366Z" fill="#088586" stroke="#483EA8" stroke-width="0.0785079"/>
<path d="M9.06204 9.5456L8.06743 10.5402L9.06204 9.5456ZM9.06204 9.5456L10.0567 10.5402C10.0917 10.5752 10.1377 10.5928 10.1836 10.5928L9.06204 9.5456ZM7.81362 10.5402C7.8837 10.6103 7.99737 10.6104 8.0674 10.5402L8.9629 9.19269L8.93514 9.16493L8.93511 9.16496L7.81362 10.2865C7.74351 10.3566 7.74351 10.4701 7.81362 10.5402Z" fill="#088586" stroke="#483EA8" stroke-width="0.0785079"/>
</svg>
